<?xml version="1.0" encoding="utf-8"?>
<!-- Generator: Adobe Illustrator 16.0.0, SVG Export Plug-In . SVG Version: 6.00 Build 0)  -->
<!DOCTYPE svg PUBLIC "-//W3C//DTD SVG 1.1//EN" "http://www.w3.org/Graphics/SVG/1.1/DTD/svg11.dtd">
<svg version="1.1" id="Layer_4" xmlns="http://www.w3.org/2000/svg" xmlns:xlink="http://www.w3.org/1999/xlink" x="0px" y="0px"
	 width="240px" height="80px" viewBox="0 0 240 80" enable-background="new 0 0 240 80" xml:space="preserve">
<polygon fill="#FFFFFF" points="31.451,57.536 26.856,49.587 15.824,68.659 25.269,68.659 31.576,57.753 "/>
<polygon fill="#FFFFFF" points="20.813,39.238 26.099,48.377 14.367,68.659 3.794,68.659 "/>
<polygon fill="#FFFFFF" points="16.381,12.45 6.439,12.45 32.133,56.875 37.1,48.285 37.104,48.277 "/>
<path fill="#FFFFFF" d="M40.89,41.709c0.93-1.604,0.93-3.584,0-5.188L26.719,12.45h-9.194l20.145,34.828L40.89,41.709z"/>
<rect x="-54.115" y="-57.849" fill="none" width="298.88" height="193.659"/>
<g>
	<path fill="#FFFFFF" d="M68.867,27.895c0,3.108-0.922,5.584-2.766,7.428c-2.093,2.197-4.817,3.294-8.174,3.294
		c-3.212,0-5.942-1.113-8.189-3.341c-2.249-2.227-3.373-4.989-3.373-8.283s1.124-6.055,3.373-8.283
		c2.248-2.228,4.978-3.341,8.189-3.341c1.595,0,3.118,0.311,4.569,0.932c1.45,0.622,2.611,1.451,3.481,2.487l-1.958,1.958
		c-1.471-1.761-3.502-2.642-6.092-2.642c-2.342,0-4.367,0.824-6.076,2.471c-1.709,1.647-2.564,3.787-2.564,6.418
		c0,2.632,0.854,4.771,2.564,6.418c1.709,1.647,3.734,2.471,6.076,2.471c2.486,0,4.558-0.829,6.216-2.486
		c1.077-1.077,1.699-2.58,1.865-4.507h-8.081v-2.673h10.785C68.815,26.796,68.867,27.356,68.867,27.895z"/>
	<path fill="#FFFFFF" d="M72.348,38.12V15.866h6.807c3.419,0,6.154,1.031,8.206,3.093c2.051,2.062,3.077,4.74,3.077,8.034
		s-1.025,5.973-3.077,8.035c-2.052,2.062-4.787,3.092-8.206,3.092H72.348z M75.207,35.385h3.947c2.569,0,4.605-0.735,6.107-2.207
		c1.502-1.471,2.253-3.532,2.253-6.185c0-2.631-0.751-4.688-2.253-6.169c-1.502-1.481-3.539-2.222-6.107-2.222h-3.947V35.385z"/>
	<path fill="#FFFFFF" d="M115.239,27.895c0,3.108-0.922,5.584-2.766,7.428c-2.093,2.197-4.817,3.294-8.174,3.294
		c-3.212,0-5.942-1.113-8.189-3.341c-2.249-2.227-3.373-4.989-3.373-8.283s1.124-6.055,3.373-8.283
		c2.248-2.228,4.978-3.341,8.189-3.341c1.595,0,3.118,0.311,4.569,0.932c1.45,0.622,2.611,1.451,3.481,2.487l-1.958,1.958
		c-1.471-1.761-3.502-2.642-6.092-2.642c-2.342,0-4.367,0.824-6.076,2.471c-1.709,1.647-2.564,3.787-2.564,6.418
		c0,2.632,0.854,4.771,2.564,6.418c1.709,1.647,3.734,2.471,6.076,2.471c2.486,0,4.558-0.829,6.216-2.486
		c1.077-1.077,1.699-2.58,1.865-4.507h-8.081v-2.673h10.785C115.187,26.796,115.239,27.356,115.239,27.895z"/>
	<path fill="#FFFFFF" d="M125.558,38.12V15.866h6.807c3.418,0,6.153,1.031,8.205,3.093c2.051,2.062,3.077,4.74,3.077,8.034
		s-1.026,5.973-3.077,8.035c-2.052,2.062-4.787,3.092-8.205,3.092H125.558z M128.417,35.385h3.947c2.568,0,4.604-0.735,6.106-2.207
		c1.503-1.471,2.254-3.532,2.254-6.185c0-2.631-0.751-4.688-2.254-6.169c-1.502-1.481-3.538-2.222-6.106-2.222h-3.947V35.385z"/>
	<path fill="#FFFFFF" d="M152.97,38.617c-2.3,0-4.17-0.766-5.61-2.3c-1.44-1.533-2.16-3.47-2.16-5.812
		c0-2.217,0.699-4.123,2.098-5.719c1.399-1.595,3.187-2.394,5.362-2.394c2.258,0,4.065,0.736,5.423,2.207s2.036,3.439,2.036,5.905
		l-0.031,0.528h-12.028c0.083,1.534,0.596,2.746,1.539,3.636c0.942,0.892,2.046,1.337,3.31,1.337c2.052,0,3.439-0.871,4.165-2.611
		l2.549,1.057c-0.498,1.181-1.316,2.171-2.456,2.968S154.627,38.617,152.97,38.617z M157.072,28.671
		c-0.063-0.87-0.462-1.699-1.196-2.486c-0.736-0.787-1.829-1.181-3.279-1.181c-1.057,0-1.974,0.332-2.751,0.995
		c-0.776,0.664-1.311,1.554-1.601,2.673H157.072z"/>
	<path fill="#FFFFFF" d="M166.956,38.12l-6.154-15.229h3.108l4.476,11.811h0.063l4.537-11.811h3.046l-6.216,15.229H166.956z"/>
	<path fill="#FFFFFF" d="M181.254,38.12h-2.859V15.866h12.991v2.735h-10.132v7.304h9.138v2.673h-9.138V38.12z"/>
	<path fill="#FFFFFF" d="M200.088,38.617c-2.3,0-4.17-0.766-5.61-2.3c-1.44-1.533-2.16-3.47-2.16-5.812
		c0-2.217,0.699-4.123,2.098-5.719c1.399-1.595,3.187-2.394,5.362-2.394c2.258,0,4.065,0.736,5.423,2.207s2.036,3.439,2.036,5.905
		l-0.031,0.528h-12.028c0.083,1.534,0.596,2.746,1.539,3.636c0.942,0.892,2.046,1.337,3.31,1.337c2.052,0,3.439-0.871,4.165-2.611
		l2.549,1.057c-0.498,1.181-1.316,2.171-2.456,2.968S201.745,38.617,200.088,38.617z M204.19,28.671
		c-0.063-0.87-0.462-1.699-1.196-2.486c-0.736-0.787-1.829-1.181-3.279-1.181c-1.057,0-1.974,0.332-2.751,0.995
		c-0.776,0.664-1.311,1.554-1.601,2.673H204.19z"/>
	<path fill="#FFFFFF" d="M215.659,38.617c-1.699,0-3.104-0.415-4.212-1.243c-1.108-0.828-1.922-1.865-2.439-3.108l2.549-1.057
		c0.808,1.907,2.186,2.859,4.134,2.859c0.891,0,1.621-0.197,2.19-0.591c0.57-0.393,0.855-0.911,0.855-1.554
		c0-0.995-0.695-1.668-2.083-2.021l-3.077-0.746c-0.974-0.249-1.896-0.72-2.766-1.415c-0.87-0.694-1.306-1.631-1.306-2.813
		c0-1.347,0.596-2.44,1.787-3.279c1.191-0.839,2.605-1.259,4.242-1.259c1.347,0,2.549,0.306,3.605,0.917
		c1.057,0.611,1.813,1.487,2.27,2.626l-2.486,1.025c-0.56-1.346-1.721-2.02-3.481-2.02c-0.85,0-1.564,0.176-2.145,0.528
		c-0.58,0.353-0.87,0.829-0.87,1.43c0,0.87,0.673,1.461,2.02,1.771l3.016,0.715c1.43,0.332,2.486,0.901,3.17,1.709
		s1.025,1.72,1.025,2.735c0,1.368-0.56,2.507-1.678,3.419C218.86,38.162,217.42,38.617,215.659,38.617z"/>
	<path fill="#FFFFFF" d="M230.577,38.369c-1.597,0-2.813-0.424-3.652-1.274c-0.839-0.849-1.259-2.051-1.259-3.605v-7.988h-2.673
		v-2.611h2.673v-4.662h2.859v4.662h3.729v2.611h-3.729v7.77c0,1.658,0.684,2.486,2.052,2.486c0.518,0,0.952-0.083,1.305-0.249
		l0.995,2.456C232.255,38.234,231.488,38.369,230.577,38.369z"/>
	<path fill="#FFFFFF" d="M50.774,62.796c-1.055,0-2.087-0.345-3.095-1.034c-1.008-0.69-1.667-1.657-1.979-2.902l1.705-0.689
		c0.203,0.798,0.619,1.471,1.248,2.019c0.629,0.548,1.336,0.822,2.121,0.822c0.812,0,1.505-0.213,2.08-0.64
		c0.575-0.426,0.862-1.004,0.862-1.734c0-0.813-0.288-1.438-0.862-1.877c-0.575-0.439-1.485-0.85-2.729-1.229
		c-1.285-0.405-2.259-0.93-2.922-1.572c-0.663-0.643-0.995-1.464-0.995-2.466c0-1.041,0.413-1.948,1.238-2.719
		c0.825-0.771,1.9-1.157,3.226-1.157c1.231,0,2.232,0.309,3.003,0.924s1.271,1.288,1.502,2.019l-1.705,0.711
		c-0.122-0.46-0.423-0.887-0.903-1.278c-0.48-0.393-1.099-0.589-1.856-0.589c-0.717,0-1.33,0.199-1.837,0.599
		s-0.761,0.896-0.761,1.491c0,0.541,0.233,0.998,0.7,1.37s1.153,0.707,2.06,1.004c0.717,0.23,1.315,0.454,1.796,0.67
		c0.48,0.217,0.967,0.504,1.461,0.862c0.494,0.359,0.866,0.806,1.116,1.34c0.25,0.534,0.375,1.153,0.375,1.856
		c0,0.704-0.146,1.333-0.437,1.888s-0.676,0.994-1.156,1.318c-0.48,0.325-0.998,0.572-1.553,0.741S51.356,62.796,50.774,62.796z"/>
	<path fill="#FFFFFF" d="M62.077,62.796c-1.501,0-2.723-0.5-3.663-1.501c-0.94-1.001-1.41-2.266-1.41-3.795
		c0-1.447,0.457-2.692,1.37-3.733c0.913-1.042,2.08-1.563,3.5-1.563c1.474,0,2.655,0.48,3.541,1.441
		c0.886,0.961,1.329,2.246,1.329,3.855l-0.02,0.345h-7.854c0.054,1.002,0.389,1.793,1.004,2.374
		c0.616,0.582,1.336,0.873,2.161,0.873c1.339,0,2.246-0.568,2.719-1.705l1.664,0.69c-0.325,0.771-0.859,1.417-1.603,1.938
		C64.073,62.536,63.16,62.796,62.077,62.796z M64.756,56.303c-0.041-0.568-0.301-1.109-0.781-1.623
		c-0.48-0.515-1.194-0.771-2.141-0.771c-0.69,0-1.289,0.217-1.796,0.649s-0.856,1.015-1.045,1.745H64.756z"/>
	<path fill="#FFFFFF" d="M71.696,62.796c-1.055,0-1.938-0.304-2.648-0.913c-0.71-0.608-1.065-1.413-1.065-2.414
		c0-1.083,0.419-1.932,1.258-2.547s1.874-0.924,3.105-0.924c1.096,0,1.995,0.203,2.699,0.609v-0.284c0-0.73-0.25-1.315-0.75-1.756
		c-0.501-0.439-1.116-0.659-1.847-0.659c-0.542,0-1.032,0.129-1.471,0.386c-0.44,0.257-0.741,0.608-0.903,1.055l-1.705-0.73
		c0.23-0.595,0.683-1.146,1.36-1.653c0.676-0.508,1.569-0.762,2.679-0.762c1.271,0,2.327,0.373,3.166,1.116
		c0.838,0.744,1.258,1.793,1.258,3.146v6.007h-1.786v-1.38h-0.081C74.219,62.229,73.129,62.796,71.696,62.796z M72,61.092
		c0.771,0,1.471-0.287,2.101-0.862c0.629-0.575,0.943-1.255,0.943-2.04c-0.527-0.433-1.319-0.648-2.374-0.648
		c-0.907,0-1.59,0.196-2.05,0.588c-0.46,0.393-0.69,0.853-0.69,1.38c0,0.487,0.21,0.873,0.629,1.157
		C70.979,60.95,71.459,61.092,72,61.092z"/>
	<path fill="#FFFFFF" d="M82.532,62.796c-1.109,0-2.026-0.271-2.75-0.812c-0.724-0.541-1.255-1.217-1.593-2.029l1.664-0.689
		c0.528,1.245,1.427,1.867,2.699,1.867c0.582,0,1.058-0.129,1.431-0.386c0.372-0.257,0.558-0.596,0.558-1.015
		c0-0.649-0.453-1.089-1.359-1.319l-2.009-0.487c-0.636-0.162-1.238-0.47-1.806-0.923s-0.853-1.065-0.853-1.837
		c0-0.879,0.389-1.593,1.167-2.141c0.778-0.548,1.701-0.822,2.77-0.822c0.879,0,1.664,0.2,2.354,0.599
		c0.69,0.399,1.184,0.972,1.481,1.715l-1.624,0.67c-0.365-0.879-1.123-1.319-2.273-1.319c-0.555,0-1.021,0.115-1.4,0.346
		c-0.379,0.229-0.568,0.541-0.568,0.934c0,0.567,0.439,0.953,1.319,1.156l1.969,0.467c0.933,0.217,1.623,0.589,2.07,1.116
		c0.446,0.527,0.669,1.123,0.669,1.785c0,0.894-0.365,1.638-1.096,2.232C84.623,62.499,83.682,62.796,82.532,62.796z"/>
	<path fill="#FFFFFF" d="M89.045,53.716c0.96-1.008,2.185-1.513,3.673-1.513c1.488,0,2.712,0.505,3.673,1.513
		c0.96,1.008,1.441,2.27,1.441,3.784c0,1.516-0.48,2.777-1.441,3.784c-0.961,1.009-2.185,1.512-3.673,1.512
		c-1.489,0-2.713-0.503-3.673-1.512c-0.96-1.007-1.44-2.269-1.44-3.784C87.605,55.985,88.085,54.724,89.045,53.716z M90.436,60.107
		c0.643,0.656,1.403,0.984,2.283,0.984c0.879,0,1.64-0.328,2.283-0.984s0.964-1.525,0.964-2.607s-0.321-1.951-0.964-2.607
		s-1.404-0.984-2.283-0.984c-0.88,0-1.641,0.328-2.283,0.984s-0.964,1.525-0.964,2.607S89.793,59.451,90.436,60.107z"/>
	<path fill="#FFFFFF" d="M101.12,52.528v1.38h0.081c0.271-0.474,0.696-0.876,1.278-1.207c0.582-0.332,1.204-0.498,1.867-0.498
		c1.231,0,2.171,0.379,2.821,1.137s0.974,1.772,0.974,3.044v6.088h-1.867v-5.804c0-1.84-0.819-2.76-2.456-2.76
		c-0.771,0-1.4,0.308-1.887,0.923c-0.487,0.616-0.73,1.33-0.73,2.142v5.499h-1.867v-9.943H101.12z"/>
	<path fill="#FFFFFF" d="M123.319,62.472h-8.848v-1.867c2.651-2.665,4.35-4.403,5.094-5.215c0.662-0.744,1.109-1.309,1.339-1.694
		c0.23-0.386,0.346-0.862,0.346-1.431c0-0.582-0.23-1.096-0.69-1.542c-0.46-0.447-1.075-0.67-1.847-0.67
		c-0.704,0-1.271,0.206-1.705,0.619c-0.433,0.412-0.71,0.855-0.832,1.329l-1.705-0.69c0.23-0.73,0.71-1.42,1.441-2.069
		s1.677-0.975,2.841-0.975c1.286,0,2.34,0.393,3.166,1.177c0.825,0.785,1.238,1.726,1.238,2.821c0,1.353-0.737,2.8-2.212,4.343
		l-4.059,4.078h6.433V62.472z"/>
	<path fill="#FFFFFF" d="M134.724,60.706c-1.028,1.394-2.374,2.09-4.038,2.09s-3.011-0.696-4.038-2.09
		c-1.028-1.393-1.543-3.118-1.543-5.175c0-2.069,0.515-3.798,1.543-5.185c1.027-1.387,2.374-2.08,4.038-2.08s3.01,0.693,4.038,2.08
		c1.027,1.387,1.542,3.115,1.542,5.185C136.266,57.588,135.751,59.313,134.724,60.706z M130.686,61.011
		c1.108,0,1.999-0.521,2.668-1.563c0.67-1.042,1.005-2.347,1.005-3.917c0-1.582-0.335-2.892-1.005-3.927
		c-0.669-1.034-1.56-1.552-2.668-1.552c-1.123,0-2.017,0.518-2.679,1.552c-0.663,1.035-0.994,2.345-0.994,3.927
		c0,1.57,0.331,2.875,0.994,3.917C128.669,60.49,129.563,61.011,130.686,61.011z"/>
	<path fill="#FFFFFF" d="M143.044,62.472h-1.867V50.905l-2.699,1.177l-0.71-1.583l4.079-1.907h1.197V62.472z"/>
	<path fill="#FFFFFF" d="M150.835,53.604c1.082,0,2.076,0.443,2.983,1.329c0.906,0.887,1.359,1.959,1.359,3.217
		c0,1.231-0.471,2.313-1.41,3.247c-0.94,0.934-2.054,1.399-3.339,1.399c-1.38,0-2.52-0.47-3.419-1.41
		c-0.899-0.939-1.35-2.019-1.35-3.236c0-1.285,0.541-2.72,1.624-4.302l3.774-5.581l1.501,1.035l-3.308,4.586l0.041,0.041
		C149.631,53.712,150.145,53.604,150.835,53.604z M150.429,60.99c0.785,0,1.458-0.271,2.02-0.812s0.842-1.211,0.842-2.009
		c0-0.785-0.28-1.451-0.842-1.999s-1.234-0.822-2.02-0.822c-0.784,0-1.461,0.274-2.029,0.822c-0.567,0.548-0.852,1.214-0.852,1.999
		c0,0.798,0.28,1.468,0.842,2.009S149.631,60.99,150.429,60.99z"/>
	<path fill="#FFFFFF" d="M165.405,62.796c-1.056,0-2.087-0.345-3.095-1.034c-1.008-0.69-1.668-1.657-1.979-2.902l1.704-0.689
		c0.203,0.798,0.619,1.471,1.248,2.019s1.336,0.822,2.121,0.822c0.812,0,1.505-0.213,2.08-0.64c0.574-0.426,0.862-1.004,0.862-1.734
		c0-0.813-0.288-1.438-0.862-1.877c-0.575-0.439-1.485-0.85-2.729-1.229c-1.286-0.405-2.26-0.93-2.923-1.572
		s-0.994-1.464-0.994-2.466c0-1.041,0.413-1.948,1.238-2.719c0.825-0.771,1.9-1.157,3.227-1.157c1.23,0,2.231,0.309,3.003,0.924
		s1.271,1.288,1.502,2.019l-1.705,0.711c-0.121-0.46-0.423-0.887-0.902-1.278c-0.48-0.393-1.1-0.589-1.857-0.589
		c-0.717,0-1.329,0.199-1.836,0.599c-0.508,0.399-0.762,0.896-0.762,1.491c0,0.541,0.233,0.998,0.7,1.37s1.153,0.707,2.061,1.004
		c0.717,0.23,1.315,0.454,1.796,0.67c0.479,0.217,0.967,0.504,1.461,0.862c0.493,0.359,0.865,0.806,1.116,1.34
		c0.25,0.534,0.375,1.153,0.375,1.856c0,0.704-0.146,1.333-0.437,1.888s-0.677,0.994-1.156,1.318
		c-0.48,0.325-0.998,0.572-1.553,0.741S165.986,62.796,165.405,62.796z"/>
	<path fill="#FFFFFF" d="M174.069,62.472h-1.866v-9.943h1.785v1.623h0.081c0.189-0.541,0.579-0.987,1.167-1.339
		c0.589-0.352,1.16-0.527,1.715-0.527s1.021,0.081,1.4,0.243l-0.71,1.745c-0.244-0.095-0.575-0.142-0.995-0.142
		c-0.676,0-1.274,0.267-1.796,0.801c-0.521,0.535-0.781,1.235-0.781,2.101V62.472z"/>
	<path fill="#FFFFFF" d="M181.599,50.032c-0.258,0.257-0.568,0.386-0.934,0.386s-0.677-0.129-0.934-0.386s-0.386-0.568-0.386-0.934
		s0.129-0.676,0.386-0.934c0.257-0.257,0.568-0.385,0.934-0.385s0.676,0.128,0.934,0.385c0.257,0.258,0.385,0.568,0.385,0.934
		S181.855,49.775,181.599,50.032z M181.599,62.472h-1.867v-9.943h1.867V62.472z"/>
	<path fill="#FFFFFF" d="M188.822,62.472V47.942h1.867v12.743h6.291v1.786H188.822z"/>
	<path fill="#FFFFFF" d="M201.749,62.796c-1.056,0-1.938-0.304-2.648-0.913c-0.711-0.608-1.065-1.413-1.065-2.414
		c0-1.083,0.419-1.932,1.258-2.547s1.874-0.924,3.104-0.924c1.097,0,1.996,0.203,2.699,0.609v-0.284c0-0.73-0.25-1.315-0.751-1.756
		c-0.5-0.439-1.116-0.659-1.847-0.659c-0.541,0-1.031,0.129-1.471,0.386c-0.44,0.257-0.741,0.608-0.903,1.055l-1.704-0.73
		c0.229-0.595,0.683-1.146,1.359-1.653c0.676-0.508,1.569-0.762,2.679-0.762c1.271,0,2.326,0.373,3.165,1.116
		c0.839,0.744,1.259,1.793,1.259,3.146v6.007h-1.786v-1.38h-0.081C204.271,62.229,203.183,62.796,201.749,62.796z M202.053,61.092
		c0.771,0,1.472-0.287,2.101-0.862s0.943-1.255,0.943-2.04c-0.527-0.433-1.319-0.648-2.374-0.648c-0.906,0-1.59,0.196-2.05,0.588
		c-0.46,0.393-0.689,0.853-0.689,1.38c0,0.487,0.209,0.873,0.629,1.157C201.031,60.95,201.512,61.092,202.053,61.092z"/>
	<path fill="#FFFFFF" d="M210.778,52.528v1.38h0.081c0.271-0.474,0.697-0.876,1.279-1.207c0.581-0.332,1.203-0.498,1.866-0.498
		c1.231,0,2.172,0.379,2.821,1.137s0.974,1.772,0.974,3.044v6.088h-1.867v-5.804c0-1.84-0.818-2.76-2.455-2.76
		c-0.771,0-1.4,0.308-1.888,0.923c-0.486,0.616-0.73,1.33-0.73,2.142v5.499h-1.866v-9.943H210.778z"/>
	<path fill="#FFFFFF" d="M221.857,47.942v8.949l4.303-4.363h2.395v0.081l-3.876,3.876l4.059,5.905v0.081h-2.253l-3.125-4.688
		l-1.502,1.502v3.186h-1.866V47.942H221.857z"/>
	<path fill="#FFFFFF" d="M232.735,62.796c-1.056,0-1.938-0.304-2.648-0.913c-0.711-0.608-1.065-1.413-1.065-2.414
		c0-1.083,0.419-1.932,1.258-2.547s1.874-0.924,3.104-0.924c1.097,0,1.996,0.203,2.699,0.609v-0.284c0-0.73-0.25-1.315-0.751-1.756
		c-0.5-0.439-1.116-0.659-1.847-0.659c-0.541,0-1.031,0.129-1.471,0.386c-0.44,0.257-0.741,0.608-0.903,1.055l-1.704-0.73
		c0.229-0.595,0.683-1.146,1.359-1.653c0.676-0.508,1.569-0.762,2.679-0.762c1.271,0,2.326,0.373,3.165,1.116
		c0.839,0.744,1.259,1.793,1.259,3.146v6.007h-1.786v-1.38h-0.081C235.258,62.229,234.169,62.796,232.735,62.796z M233.039,61.092
		c0.771,0,1.472-0.287,2.101-0.862s0.943-1.255,0.943-2.04c-0.527-0.433-1.319-0.648-2.374-0.648c-0.906,0-1.59,0.196-2.05,0.588
		c-0.46,0.393-0.689,0.853-0.689,1.38c0,0.487,0.209,0.873,0.629,1.157C232.018,60.95,232.498,61.092,233.039,61.092z"/>
</g>
<path fill="#FFFFFF" stroke="#FFFFFF" stroke-miterlimit="10" d="M47.932,47.73"/>
<path fill="#FEE054" stroke="#FFFFFF" stroke-miterlimit="10" d="M11.132,11.863"/>
<path fill="#FEE054" stroke="#FFFFFF" stroke-miterlimit="10" d="M26.884,56.288"/>
<path fill="#FFFFFF" stroke="#FFFFFF" stroke-miterlimit="10" d="M23.007,39.115"/>
<path fill="#FFFFFF" stroke="#FFFFFF" stroke-miterlimit="10" d="M27.978,47.709"/>
<path fill="#FEE054" stroke="#FFFFFF" stroke-miterlimit="10" d="M11.132,67.194"/>
</svg>
