<?xml version="1.0" encoding="utf-8"?>
<!-- Generator: Adobe Illustrator 16.0.0, SVG Export Plug-In . SVG Version: 6.00 Build 0)  -->
<!DOCTYPE svg PUBLIC "-//W3C//DTD SVG 1.1//EN" "http://www.w3.org/Graphics/SVG/1.1/DTD/svg11.dtd">
<svg version="1.1" id="Layer_1" xmlns="http://www.w3.org/2000/svg" xmlns:xlink="http://www.w3.org/1999/xlink" x="0px" y="0px"
	 width="839px" height="200px" viewBox="0 0 839 200" enable-background="new 0 0 839 200" xml:space="preserve">
<g>
	<defs>
		<path id="SVGID_1_" d="M118.376,32.396l40.183,69.469l-40.183,69.47h48.681l36.406-62.957c2.334-4.027,2.334-8.999,0-13.025
			l-36.406-62.956H118.376z"/>
	</defs>
	<clipPath id="SVGID_2_">
		<use xlink:href="#SVGID_1_"  overflow="visible"/>
	</clipPath>
	<polygon clip-path="url(#SVGID_2_)" fill="#FDC113" points="182.579,143.403 171.042,123.443 143.341,171.334 167.057,171.334 
		182.895,143.945 	"/>
	<polygon clip-path="url(#SVGID_2_)" fill="#0F9D58" points="158.559,101.864 171.042,123.443 143.341,171.334 118.376,171.334 	"/>
	<g clip-path="url(#SVGID_2_)">
		<defs>
			<rect id="SVGID_3_" x="-20.496" y="-142.652" width="750.489" height="486.279"/>
		</defs>
		<clipPath id="SVGID_4_">
			<use xlink:href="#SVGID_3_"  overflow="visible"/>
		</clipPath>
		<g opacity="0.2" clip-path="url(#SVGID_4_)" enable-background="new    ">
			<g>
				<defs>
					<rect id="SVGID_5_" x="143.341" y="143.403" width="39.553" height="27.931"/>
				</defs>
				<clipPath id="SVGID_6_">
					<use xlink:href="#SVGID_5_"  overflow="visible"/>
				</clipPath>
				<polygon clip-path="url(#SVGID_6_)" fill="#BE3B26" points="167.057,170.247 143.97,170.247 143.341,171.334 167.057,171.334 
					182.895,143.945 182.579,143.403 				"/>
			</g>
		</g>
		<g opacity="0.2" clip-path="url(#SVGID_4_)" enable-background="new    ">
			<g>
				<defs>
					<rect id="SVGID_7_" x="118.376" y="170.247" width="25.594" height="1.087"/>
				</defs>
				<clipPath id="SVGID_8_">
					<use xlink:href="#SVGID_7_"  overflow="visible"/>
				</clipPath>
				<polygon clip-path="url(#SVGID_8_)" fill="#273238" points="119.006,170.247 118.376,171.334 143.341,171.334 143.97,170.247 
									"/>
			</g>
		</g>
		<g opacity="0.2" clip-path="url(#SVGID_4_)" enable-background="new    ">
			<g>
				<defs>
					<rect id="SVGID_9_" x="118.376" y="101.864" width="40.497" height="69.47"/>
				</defs>
				<clipPath id="SVGID_10_">
					<use xlink:href="#SVGID_9_"  overflow="visible"/>
				</clipPath>
				<polygon clip-path="url(#SVGID_10_)" fill="#FFFFFF" points="118.376,171.334 119.006,171.334 158.873,102.407 158.559,101.864 
									"/>
			</g>
		</g>
	</g>
	<g clip-path="url(#SVGID_2_)">
		<defs>
			<polygon id="SVGID_11_" points="182.895,143.945 182.895,143.945 171.042,123.443 168.132,128.47 			"/>
		</defs>
		<clipPath id="SVGID_12_">
			<use xlink:href="#SVGID_11_"  overflow="visible"/>
		</clipPath>
		<defs>
			<filter id="Adobe_OpacityMaskFilter" filterUnits="userSpaceOnUse" x="168.132" y="123.443" width="14.762" height="20.502">
				<feColorMatrix  type="matrix" values="1 0 0 0 0  0 1 0 0 0  0 0 1 0 0  0 0 0 1 0"/>
			</filter>
		</defs>
		<mask maskUnits="userSpaceOnUse" x="168.132" y="123.443" width="14.762" height="20.502" id="SVGID_13_">
			<g filter="url(#Adobe_OpacityMaskFilter)">
				
					<radialGradient id="SVGID_14_" cx="72.2275" cy="324.0879" r="1.0454" gradientTransform="matrix(44.2635 0 0 44.2635 -3014.3438 -14201.6875)" gradientUnits="userSpaceOnUse">
					<stop  offset="0" style="stop-color:#333333"/>
					<stop  offset="1" style="stop-color:#050505"/>
				</radialGradient>
				<rect x="168.132" y="123.443" clip-path="url(#SVGID_12_)" fill="url(#SVGID_14_)" width="14.762" height="20.502"/>
			</g>
		</mask>
		
			<radialGradient id="SVGID_15_" cx="72.2266" cy="324.0898" r="1.1134" gradientTransform="matrix(44.2635 0 0 44.2635 -3014.2813 -14201.8125)" gradientUnits="userSpaceOnUse">
			<stop  offset="0" style="stop-color:#BE3B26"/>
			<stop  offset="1" style="stop-color:#BE3B26"/>
		</radialGradient>
		
			<rect x="168.132" y="123.443" clip-path="url(#SVGID_12_)" mask="url(#SVGID_13_)" fill="url(#SVGID_15_)" width="14.762" height="20.502"/>
	</g>
	<g clip-path="url(#SVGID_2_)">
		<defs>
			<polygon id="SVGID_16_" points="168.132,128.47 171.042,123.443 158.559,101.864 152.599,112.176 			"/>
		</defs>
		<clipPath id="SVGID_17_">
			<use xlink:href="#SVGID_16_"  overflow="visible"/>
		</clipPath>
		<defs>
			<filter id="Adobe_OpacityMaskFilter_1_" filterUnits="userSpaceOnUse" x="152.599" y="101.864" width="18.443" height="26.605">
				<feColorMatrix  type="matrix" values="1 0 0 0 0  0 1 0 0 0  0 0 1 0 0  0 0 0 1 0"/>
			</filter>
		</defs>
		<mask maskUnits="userSpaceOnUse" x="152.599" y="101.864" width="18.443" height="26.605" id="SVGID_18_">
			<g filter="url(#Adobe_OpacityMaskFilter_1_)">
				
					<radialGradient id="SVGID_19_" cx="72.2397" cy="324.0859" r="1.0841" gradientTransform="matrix(44.6228 0 0 44.6228 -3040.9375 -14317.8125)" gradientUnits="userSpaceOnUse">
					<stop  offset="0" style="stop-color:#333333"/>
					<stop  offset="1" style="stop-color:#050505"/>
				</radialGradient>
				<rect x="152.599" y="101.864" clip-path="url(#SVGID_17_)" fill="url(#SVGID_19_)" width="18.443" height="26.605"/>
			</g>
		</mask>
		
			<radialGradient id="SVGID_20_" cx="72.2407" cy="324.0879" r="1.0861" gradientTransform="matrix(44.6228 0 0 44.6228 -3040.9688 -14317.8438)" gradientUnits="userSpaceOnUse">
			<stop  offset="0" style="stop-color:#273238"/>
			<stop  offset="1" style="stop-color:#273238"/>
		</radialGradient>
		
			<rect x="152.599" y="101.864" clip-path="url(#SVGID_17_)" mask="url(#SVGID_18_)" fill="url(#SVGID_20_)" width="18.443" height="26.605"/>
	</g>
	<polygon clip-path="url(#SVGID_2_)" fill="#557EBF" points="143.341,32.396 118.376,32.396 182.895,143.945 195.366,122.379 
		195.377,122.359 	"/>
	<g clip-path="url(#SVGID_2_)">
		<defs>
			<rect id="SVGID_21_" x="-20.496" y="-142.652" width="750.489" height="486.279"/>
		</defs>
		<clipPath id="SVGID_22_">
			<use xlink:href="#SVGID_21_"  overflow="visible"/>
		</clipPath>
		<path clip-path="url(#SVGID_22_)" fill="#DC4637" d="M203.463,108.377c2.334-4.027,2.334-8.999,0-13.025l-36.406-62.956h-23.716
			l52.036,89.964L203.463,108.377z"/>
		<g opacity="0.2" clip-path="url(#SVGID_22_)" enable-background="new    ">
			<g>
				<defs>
					<rect id="SVGID_23_" x="118.376" y="32.396" width="77.001" height="111.55"/>
				</defs>
				<clipPath id="SVGID_24_">
					<use xlink:href="#SVGID_23_"  overflow="visible"/>
				</clipPath>
				<polygon clip-path="url(#SVGID_24_)" fill="#2D3079" points="195.377,122.359 195.062,121.827 182.895,142.859 119.006,32.396 
					118.376,32.396 182.895,143.945 195.366,122.379 				"/>
			</g>
		</g>
		<g opacity="0.2" clip-path="url(#SVGID_22_)" enable-background="new    ">
			<g>
				<defs>
					<rect id="SVGID_25_" x="118.376" y="32.396" width="86.813" height="70.012"/>
				</defs>
				<clipPath id="SVGID_26_">
					<use xlink:href="#SVGID_25_"  overflow="visible"/>
				</clipPath>
				<path clip-path="url(#SVGID_26_)" fill="#FFFFFF" d="M167.057,33.482l36.406,62.955c1.074,1.856,1.629,3.906,1.715,5.97
					c0.097-2.432-0.455-4.886-1.715-7.056l-36.406-62.956h-48.681l0.63,1.087H167.057z"/>
			</g>
		</g>
		<g opacity="0.2" clip-path="url(#SVGID_22_)" enable-background="new    ">
			<g>
				<defs>
					<rect id="SVGID_27_" x="195.062" y="101.321" width="10.127" height="21.038"/>
				</defs>
				<clipPath id="SVGID_28_">
					<use xlink:href="#SVGID_27_"  overflow="visible"/>
				</clipPath>
				<path clip-path="url(#SVGID_28_)" fill="#3F2723" d="M195.377,122.359l8.086-13.982c1.261-2.17,1.813-4.624,1.715-7.056
					c-0.086,2.063-0.641,4.113-1.715,5.97l-8.401,14.536L195.377,122.359z"/>
			</g>
		</g>
	</g>
	<defs>
		<filter id="Adobe_OpacityMaskFilter_2_" filterUnits="userSpaceOnUse" x="118.376" y="32.396" width="87.421" height="138.938">
			<feColorMatrix  type="matrix" values="1 0 0 0 0  0 1 0 0 0  0 0 1 0 0  0 0 0 1 0"/>
		</filter>
	</defs>
	<mask maskUnits="userSpaceOnUse" x="118.376" y="32.396" width="87.421" height="138.938" id="SVGID_29_">
		<g filter="url(#Adobe_OpacityMaskFilter_2_)">
			
				<radialGradient id="SVGID_30_" cx="73.3774" cy="323.9639" r="1.0856" gradientTransform="matrix(134.3503 0 0 134.3503 -9741 -43491.25)" gradientUnits="userSpaceOnUse">
				<stop  offset="0" style="stop-color:#1A1A1A"/>
				<stop  offset="1" style="stop-color:#000000"/>
			</radialGradient>
			<rect x="118.376" y="32.396" clip-path="url(#SVGID_2_)" fill="url(#SVGID_30_)" width="87.421" height="138.938"/>
		</g>
	</mask>
	
		<radialGradient id="SVGID_31_" cx="73.3774" cy="323.9639" r="1.0856" gradientTransform="matrix(134.3503 0 0 134.3503 -9741 -43491.25)" gradientUnits="userSpaceOnUse">
		<stop  offset="0" style="stop-color:#FFFFFF"/>
		<stop  offset="1" style="stop-color:#FFFFFF"/>
	</radialGradient>
	
		<rect x="118.376" y="32.396" clip-path="url(#SVGID_2_)" mask="url(#SVGID_29_)" fill="url(#SVGID_31_)" width="87.421" height="138.938"/>
</g>
<g>
	<path fill="#FFFFFF" d="M307.392,69.853c0,7.591-2.252,13.639-6.756,18.143c-5.112,5.365-11.766,8.046-19.964,8.046
		c-7.845,0-14.512-2.72-20.002-8.16c-5.492-5.439-8.236-12.184-8.236-20.23c0-8.047,2.745-14.79,8.236-20.23
		c5.491-5.439,12.158-8.16,20.002-8.16c3.896,0,7.616,0.759,11.159,2.277c3.542,1.518,6.376,3.542,8.502,6.073l-4.783,4.782
		c-3.594-4.301-8.553-6.452-14.878-6.452c-5.719,0-10.666,2.011-14.84,6.035c-4.175,4.023-6.263,9.249-6.263,15.676
		c0,6.427,2.087,11.652,6.263,15.675c4.175,4.023,9.121,6.035,14.84,6.035c6.073,0,11.133-2.024,15.182-6.073
		c2.631-2.631,4.149-6.3,4.555-11.007h-19.737v-6.528h26.341C307.265,67.171,307.392,68.537,307.392,69.853z"/>
	<path fill="#FFFFFF" d="M315.893,94.827V40.475h16.625c8.35,0,15.03,2.518,20.041,7.553c5.01,5.036,7.515,11.576,7.515,19.623
		c0,8.046-2.505,14.588-7.515,19.623c-5.01,5.036-11.69,7.553-20.041,7.553H315.893z M322.877,88.147h9.641
		c6.274,0,11.247-1.796,14.917-5.39c3.669-3.593,5.503-8.628,5.503-15.106c0-6.427-1.834-11.45-5.503-15.068
		c-3.67-3.618-8.642-5.428-14.917-5.428h-9.641V88.147z"/>
	<path fill="#FFFFFF" d="M420.648,69.853c0,7.591-2.252,13.639-6.756,18.143c-5.111,5.365-11.766,8.046-19.964,8.046
		c-7.845,0-14.512-2.72-20.002-8.16c-5.492-5.439-8.236-12.184-8.236-20.23c0-8.047,2.745-14.79,8.236-20.23
		c5.491-5.439,12.158-8.16,20.002-8.16c3.896,0,7.616,0.759,11.159,2.277c3.541,1.518,6.377,3.542,8.502,6.073l-4.783,4.782
		c-3.594-4.301-8.552-6.452-14.878-6.452c-5.719,0-10.666,2.011-14.84,6.035c-4.175,4.023-6.263,9.249-6.263,15.676
		c0,6.427,2.087,11.652,6.263,15.675c4.175,4.023,9.121,6.035,14.84,6.035c6.073,0,11.134-2.024,15.183-6.073
		c2.631-2.631,4.148-6.3,4.555-11.007h-19.737v-6.528h26.341C420.521,67.171,420.648,68.537,420.648,69.853z"/>
	<path fill="#FFFFFF" d="M445.851,94.827V40.475h16.624c8.351,0,15.03,2.518,20.041,7.553c5.01,5.036,7.515,11.576,7.515,19.623
		c0,8.046-2.505,14.588-7.515,19.623c-5.011,5.036-11.69,7.553-20.041,7.553H445.851z M452.834,88.147h9.641
		c6.274,0,11.247-1.796,14.917-5.39c3.668-3.593,5.503-8.628,5.503-15.106c0-6.427-1.835-11.45-5.503-15.068
		c-3.67-3.618-8.643-5.428-14.917-5.428h-9.641V88.147z"/>
	<path fill="#FFFFFF" d="M512.804,96.042c-5.618,0-10.186-1.872-13.702-5.617c-3.518-3.745-5.275-8.476-5.275-14.195
		c0-5.415,1.707-10.07,5.123-13.967c3.416-3.896,7.781-5.845,13.095-5.845c5.516,0,9.932,1.797,13.247,5.39
		c3.313,3.594,4.972,8.401,4.972,14.423l-0.076,1.291H500.81c0.201,3.746,1.454,6.706,3.758,8.881
		c2.302,2.177,4.997,3.264,8.084,3.264c5.011,0,8.4-2.125,10.172-6.376l6.225,2.581c-1.214,2.885-3.214,5.302-5.996,7.25
		C520.268,95.067,516.852,96.042,512.804,96.042z M522.823,71.75c-0.151-2.125-1.127-4.149-2.922-6.073
		c-1.797-1.922-4.467-2.884-8.009-2.884c-2.581,0-4.82,0.81-6.718,2.429c-1.898,1.62-3.202,3.795-3.91,6.528H522.823z"/>
	<path fill="#FFFFFF" d="M546.963,94.827l-15.03-37.196h7.591l10.932,28.846h0.151l11.083-28.846h7.439l-15.183,37.196H546.963z"/>
	<path fill="#FFFFFF" d="M581.881,94.827h-6.983V40.475h31.73v6.68h-24.747v17.839h22.317v6.528h-22.317V94.827z"/>
	<path fill="#FFFFFF" d="M627.882,96.042c-5.618,0-10.186-1.872-13.702-5.617c-3.518-3.745-5.275-8.476-5.275-14.195
		c0-5.415,1.707-10.07,5.123-13.967c3.416-3.896,7.781-5.845,13.095-5.845c5.516,0,9.932,1.797,13.247,5.39
		c3.313,3.594,4.972,8.401,4.972,14.423l-0.076,1.291h-29.377c0.201,3.746,1.454,6.706,3.758,8.881
		c2.302,2.177,4.997,3.264,8.084,3.264c5.011,0,8.4-2.125,10.172-6.376l6.225,2.581c-1.214,2.885-3.214,5.302-5.996,7.25
		C635.346,95.067,631.93,96.042,627.882,96.042z M637.901,71.75c-0.151-2.125-1.127-4.149-2.922-6.073
		c-1.797-1.922-4.467-2.884-8.009-2.884c-2.581,0-4.82,0.81-6.718,2.429c-1.898,1.62-3.202,3.795-3.91,6.528H637.901z"/>
	<path fill="#FFFFFF" d="M665.912,96.042c-4.149,0-7.579-1.013-10.285-3.036c-2.708-2.023-4.695-4.555-5.959-7.591l6.225-2.581
		c1.974,4.656,5.338,6.983,10.096,6.983c2.176,0,3.959-0.48,5.352-1.442c1.392-0.96,2.088-2.226,2.088-3.795
		c0-2.429-1.696-4.073-5.086-4.934l-7.516-1.822c-2.379-0.607-4.63-1.758-6.756-3.454c-2.125-1.695-3.188-3.985-3.188-6.87
		c0-3.289,1.454-5.959,4.365-8.009c2.909-2.05,6.363-3.074,10.361-3.074c3.289,0,6.225,0.747,8.806,2.239
		c2.581,1.493,4.428,3.632,5.542,6.415l-6.073,2.505c-1.366-3.289-4.201-4.934-8.502-4.934c-2.075,0-3.821,0.431-5.237,1.291
		c-1.418,0.861-2.126,2.024-2.126,3.492c0,2.125,1.645,3.568,4.935,4.327l7.363,1.746c3.492,0.81,6.072,2.202,7.743,4.175
		c1.67,1.974,2.505,4.201,2.505,6.68c0,3.34-1.366,6.124-4.1,8.35C673.731,94.928,670.213,96.042,665.912,96.042z"/>
	<path fill="#FFFFFF" d="M702.349,95.435c-3.897,0-6.869-1.037-8.919-3.112c-2.05-2.075-3.074-5.01-3.074-8.806V64.007h-6.528
		v-6.376h6.528V46.244h6.983v11.387h9.109v6.376h-9.109v18.978c0,4.05,1.67,6.073,5.01,6.073c1.265,0,2.327-0.202,3.188-0.607
		l2.43,5.997C706.448,95.104,704.575,95.435,702.349,95.435z"/>
	<path fill="#FFFFFF" d="M263.049,155.611c-2.548,0-5.039-0.833-7.472-2.499c-2.434-1.666-4.026-4.001-4.778-7.007l4.116-1.666
		c0.49,1.928,1.495,3.552,3.014,4.875s3.226,1.984,5.12,1.984c1.96,0,3.634-0.515,5.023-1.543c1.388-1.029,2.082-2.426,2.082-4.189
		c0-1.96-0.694-3.471-2.082-4.533c-1.389-1.061-3.585-2.049-6.591-2.964c-3.104-0.98-5.456-2.246-7.056-3.798
		c-1.601-1.551-2.401-3.535-2.401-5.953c0-2.516,0.996-4.704,2.989-6.566c1.992-1.861,4.589-2.793,7.791-2.793
		c2.972,0,5.39,0.743,7.252,2.229c1.862,1.487,3.07,3.111,3.626,4.876l-4.116,1.715c-0.294-1.11-1.021-2.14-2.18-3.087
		c-1.16-0.947-2.655-1.421-4.484-1.421c-1.731,0-3.209,0.482-4.434,1.445c-1.225,0.964-1.838,2.164-1.838,3.602
		c0,1.307,0.563,2.409,1.69,3.308c1.127,0.898,2.785,1.707,4.974,2.425c1.731,0.557,3.177,1.095,4.336,1.617
		c1.159,0.523,2.335,1.218,3.528,2.083c1.192,0.865,2.09,1.943,2.695,3.233c0.604,1.291,0.907,2.785,0.907,4.483
		c0,1.699-0.352,3.219-1.054,4.558c-0.703,1.34-1.634,2.4-2.793,3.185c-1.16,0.784-2.41,1.381-3.749,1.789
		C265.826,155.406,264.454,155.611,263.049,155.611z"/>
	<path fill="#FFFFFF" d="M290.342,155.611c-3.626,0-6.575-1.208-8.845-3.626c-2.271-2.417-3.405-5.472-3.405-9.163
		c0-3.495,1.103-6.5,3.308-9.017c2.205-2.515,5.022-3.772,8.452-3.772c3.561,0,6.411,1.16,8.551,3.479
		c2.139,2.32,3.209,5.424,3.209,9.311l-0.049,0.833H282.6c0.13,2.418,0.939,4.329,2.426,5.732c1.486,1.405,3.226,2.107,5.218,2.107
		c3.234,0,5.422-1.372,6.566-4.116l4.018,1.666c-0.784,1.862-2.075,3.423-3.871,4.68
		C295.16,154.981,292.955,155.611,290.342,155.611z M296.81,139.931c-0.098-1.371-0.727-2.678-1.886-3.92
		c-1.16-1.24-2.883-1.861-5.169-1.861c-1.666,0-3.112,0.522-4.337,1.567c-1.225,1.046-2.066,2.45-2.523,4.214H296.81z"/>
	<path fill="#FFFFFF" d="M313.567,155.611c-2.548,0-4.679-0.735-6.395-2.205c-1.715-1.47-2.572-3.413-2.572-5.831
		c0-2.613,1.012-4.663,3.038-6.149c2.025-1.486,4.524-2.229,7.497-2.229c2.646,0,4.818,0.49,6.517,1.47v-0.686
		c0-1.765-0.604-3.177-1.813-4.239c-1.209-1.061-2.695-1.592-4.459-1.592c-1.307,0-2.491,0.311-3.552,0.931
		c-1.062,0.621-1.789,1.47-2.181,2.548l-4.116-1.764c0.555-1.438,1.649-2.769,3.283-3.993c1.633-1.226,3.789-1.838,6.468-1.838
		c3.07,0,5.618,0.898,7.644,2.695c2.025,1.797,3.038,4.328,3.038,7.595v14.504h-4.312v-3.332h-0.196
		C319.66,154.239,317.03,155.611,313.567,155.611z M314.303,151.495c1.862,0,3.552-0.693,5.071-2.082s2.278-3.03,2.278-4.925
		c-1.274-1.045-3.185-1.568-5.733-1.568c-2.189,0-3.839,0.475-4.949,1.421c-1.111,0.948-1.666,2.059-1.666,3.332
		c0,1.177,0.506,2.107,1.519,2.793C311.835,151.152,312.996,151.495,314.303,151.495z"/>
	<path fill="#FFFFFF" d="M339.734,155.611c-2.679,0-4.893-0.654-6.64-1.96c-1.748-1.307-3.03-2.94-3.847-4.9l4.018-1.666
		c1.274,3.006,3.446,4.508,6.517,4.508c1.404,0,2.556-0.31,3.455-0.931c0.898-0.62,1.348-1.438,1.348-2.45
		c0-1.567-1.095-2.629-3.283-3.185l-4.851-1.176c-1.536-0.393-2.989-1.135-4.361-2.229s-2.058-2.573-2.058-4.435
		c0-2.123,0.938-3.847,2.817-5.17c1.878-1.323,4.108-1.984,6.688-1.984c2.123,0,4.018,0.482,5.684,1.445
		c1.666,0.964,2.858,2.345,3.577,4.141l-3.92,1.617c-0.882-2.123-2.712-3.186-5.488-3.186c-1.34,0-2.467,0.278-3.381,0.833
		c-0.915,0.557-1.372,1.308-1.372,2.254c0,1.372,1.061,2.304,3.185,2.793l4.753,1.128c2.254,0.522,3.92,1.421,4.998,2.694
		c1.078,1.274,1.617,2.712,1.617,4.313c0,2.155-0.882,3.953-2.646,5.39C344.781,154.893,342.51,155.611,339.734,155.611z"/>
	<path fill="#FFFFFF" d="M355.461,133.684c2.319-2.433,5.275-3.65,8.869-3.65c3.593,0,6.549,1.218,8.869,3.65
		c2.319,2.434,3.479,5.48,3.479,9.139c0,3.659-1.16,6.705-3.479,9.139c-2.32,2.434-5.276,3.65-8.869,3.65
		c-3.594,0-6.55-1.217-8.869-3.65c-2.32-2.434-3.479-5.479-3.479-9.139C351.982,139.164,353.142,136.117,355.461,133.684z
		 M358.818,149.118c1.551,1.585,3.389,2.377,5.513,2.377c2.123,0,3.96-0.792,5.512-2.377c1.551-1.584,2.328-3.683,2.328-6.296
		s-0.776-4.712-2.328-6.297c-1.552-1.584-3.389-2.376-5.512-2.376c-2.124,0-3.961,0.792-5.513,2.376
		c-1.552,1.585-2.328,3.684-2.328,6.297S357.266,147.534,358.818,149.118z"/>
	<path fill="#FFFFFF" d="M384.617,130.817v3.332h0.196c0.653-1.144,1.682-2.115,3.087-2.916c1.404-0.8,2.907-1.2,4.508-1.2
		c2.972,0,5.243,0.915,6.811,2.744c1.568,1.83,2.352,4.279,2.352,7.35v14.7h-4.508v-14.014c0-4.442-1.977-6.664-5.929-6.664
		c-1.862,0-3.381,0.743-4.557,2.229c-1.176,1.486-1.764,3.209-1.764,5.169v13.279h-4.508v-24.01H384.617z"/>
	<path fill="#FFFFFF" d="M438.222,154.827h-21.364v-4.508c6.402-6.436,10.502-10.633,12.299-12.593
		c1.601-1.797,2.679-3.161,3.234-4.092c0.555-0.931,0.833-2.083,0.833-3.455c0-1.403-0.556-2.646-1.666-3.724
		c-1.111-1.078-2.597-1.617-4.459-1.617c-1.699,0-3.071,0.499-4.116,1.495c-1.046,0.996-1.715,2.066-2.009,3.209l-4.116-1.666
		c0.555-1.764,1.715-3.43,3.479-4.998c1.764-1.567,4.05-2.352,6.859-2.352c3.104,0,5.651,0.947,7.645,2.842
		c1.992,1.895,2.988,4.165,2.988,6.811c0,3.268-1.78,6.763-5.341,10.486l-9.8,9.85h15.533V154.827z"/>
	<path fill="#FFFFFF" d="M465.759,150.564c-2.482,3.364-5.732,5.047-9.751,5.047c-4.018,0-7.269-1.683-9.751-5.047
		s-3.724-7.529-3.724-12.495c0-4.998,1.241-9.171,3.724-12.52s5.733-5.022,9.751-5.022c4.019,0,7.269,1.674,9.751,5.022
		s3.725,7.521,3.725,12.52C469.483,143.035,468.241,147.2,465.759,150.564z M456.008,151.299c2.679,0,4.826-1.257,6.443-3.772
		s2.426-5.667,2.426-9.457c0-3.822-0.809-6.982-2.426-9.481s-3.765-3.749-6.443-3.749c-2.712,0-4.868,1.25-6.468,3.749
		c-1.601,2.499-2.401,5.659-2.401,9.481c0,3.79,0.801,6.941,2.401,9.457C451.14,150.042,453.296,151.299,456.008,151.299z"/>
	<path fill="#FFFFFF" d="M485.849,154.827h-4.508v-27.93l-6.518,2.842l-1.715-3.822l9.849-4.605h2.892V154.827z"/>
	<path fill="#FFFFFF" d="M504.663,133.414c2.613,0,5.014,1.07,7.203,3.21c2.188,2.14,3.283,4.729,3.283,7.767
		c0,2.973-1.136,5.586-3.406,7.84s-4.957,3.381-8.061,3.381c-3.332,0-6.084-1.135-8.256-3.405c-2.173-2.271-3.259-4.876-3.259-7.815
		c0-3.104,1.307-6.566,3.92-10.389l9.114-13.475l3.626,2.499l-7.987,11.074l0.099,0.098
		C501.755,133.676,502.997,133.414,504.663,133.414z M503.683,151.25c1.895,0,3.52-0.653,4.876-1.96
		c1.355-1.306,2.033-2.923,2.033-4.851c0-1.895-0.678-3.504-2.033-4.827c-1.356-1.322-2.981-1.984-4.876-1.984
		s-3.527,0.662-4.899,1.984c-1.372,1.323-2.059,2.933-2.059,4.827c0,1.928,0.678,3.545,2.034,4.851
		C500.113,150.597,501.755,151.25,503.683,151.25z"/>
	<path fill="#FFFFFF" d="M539.845,155.611c-2.548,0-5.039-0.833-7.473-2.499s-4.026-4.001-4.777-7.007l4.116-1.666
		c0.49,1.928,1.494,3.552,3.014,4.875c1.519,1.323,3.226,1.984,5.12,1.984c1.96,0,3.634-0.515,5.022-1.543
		c1.389-1.029,2.083-2.426,2.083-4.189c0-1.96-0.694-3.471-2.083-4.533c-1.389-1.061-3.585-2.049-6.59-2.964
		c-3.104-0.98-5.456-2.246-7.057-3.798c-1.601-1.551-2.4-3.535-2.4-5.953c0-2.516,0.996-4.704,2.988-6.566
		c1.992-1.861,4.59-2.793,7.791-2.793c2.973,0,5.391,0.743,7.252,2.229c1.862,1.487,3.07,3.111,3.626,4.876l-4.115,1.715
		c-0.294-1.11-1.021-2.14-2.181-3.087c-1.16-0.947-2.654-1.421-4.483-1.421c-1.732,0-3.21,0.482-4.435,1.445
		c-1.226,0.964-1.838,2.164-1.838,3.602c0,1.307,0.563,2.409,1.69,3.308s2.785,1.707,4.974,2.425
		c1.731,0.557,3.177,1.095,4.337,1.617c1.159,0.523,2.335,1.218,3.527,2.083s2.091,1.943,2.695,3.233
		c0.604,1.291,0.906,2.785,0.906,4.483c0,1.699-0.352,3.219-1.053,4.558c-0.703,1.34-1.635,2.4-2.794,3.185
		s-2.409,1.381-3.748,1.789C542.621,155.406,541.249,155.611,539.845,155.611z"/>
	<path fill="#FFFFFF" d="M560.768,154.827h-4.508v-24.01h4.312v3.92h0.196c0.457-1.307,1.396-2.385,2.817-3.234
		c1.421-0.849,2.801-1.273,4.141-1.273c1.339,0,2.466,0.195,3.381,0.588l-1.715,4.214c-0.588-0.229-1.389-0.343-2.401-0.343
		c-1.634,0-3.079,0.646-4.336,1.936c-1.258,1.29-1.887,2.981-1.887,5.071V154.827z"/>
	<path fill="#FFFFFF" d="M578.945,124.79c-0.62,0.621-1.371,0.931-2.254,0.931c-0.882,0-1.634-0.31-2.254-0.931
		c-0.621-0.62-0.931-1.372-0.931-2.254s0.31-1.633,0.931-2.254c0.62-0.62,1.372-0.931,2.254-0.931c0.883,0,1.634,0.311,2.254,0.931
		c0.62,0.621,0.932,1.372,0.932,2.254S579.565,124.17,578.945,124.79z M578.945,154.827h-4.508v-24.01h4.508V154.827z"/>
	<path fill="#FFFFFF" d="M596.389,154.827v-35.084h4.508v30.772h15.189v4.312H596.389z"/>
	<path fill="#FFFFFF" d="M627.601,155.611c-2.548,0-4.68-0.735-6.395-2.205s-2.572-3.413-2.572-5.831
		c0-2.613,1.012-4.663,3.038-6.149c2.025-1.486,4.523-2.229,7.497-2.229c2.646,0,4.817,0.49,6.517,1.47v-0.686
		c0-1.765-0.604-3.177-1.813-4.239c-1.209-1.061-2.695-1.592-4.459-1.592c-1.308,0-2.491,0.311-3.553,0.931
		c-1.063,0.621-1.789,1.47-2.181,2.548l-4.116-1.764c0.556-1.438,1.649-2.769,3.283-3.993c1.633-1.226,3.789-1.838,6.468-1.838
		c3.07,0,5.618,0.898,7.645,2.695c2.024,1.797,3.038,4.328,3.038,7.595v14.504h-4.313v-3.332h-0.196
		C633.692,154.239,631.063,155.611,627.601,155.611z M628.336,151.495c1.861,0,3.553-0.693,5.071-2.082s2.278-3.03,2.278-4.925
		c-1.273-1.045-3.185-1.568-5.732-1.568c-2.189,0-3.839,0.475-4.949,1.421c-1.111,0.948-1.666,2.059-1.666,3.332
		c0,1.177,0.506,2.107,1.519,2.793C625.869,151.152,627.028,151.495,628.336,151.495z"/>
	<path fill="#FFFFFF" d="M649.405,130.817v3.332h0.196c0.653-1.144,1.682-2.115,3.087-2.916c1.404-0.8,2.907-1.2,4.508-1.2
		c2.973,0,5.243,0.915,6.812,2.744c1.567,1.83,2.352,4.279,2.352,7.35v14.7h-4.508v-14.014c0-4.442-1.977-6.664-5.929-6.664
		c-1.862,0-3.381,0.743-4.558,2.229c-1.176,1.486-1.764,3.209-1.764,5.169v13.279h-4.508v-24.01H649.405z"/>
	<path fill="#FFFFFF" d="M676.159,119.743v21.609l10.388-10.535h5.782v0.195l-9.358,9.359l9.8,14.259v0.196h-5.439l-7.546-11.319
		l-3.626,3.626v7.693h-4.508v-35.084H676.159z"/>
	<path fill="#FFFFFF" d="M702.423,155.611c-2.548,0-4.68-0.735-6.395-2.205s-2.572-3.413-2.572-5.831
		c0-2.613,1.012-4.663,3.038-6.149c2.025-1.486,4.523-2.229,7.497-2.229c2.646,0,4.817,0.49,6.517,1.47v-0.686
		c0-1.765-0.604-3.177-1.813-4.239c-1.209-1.061-2.695-1.592-4.459-1.592c-1.308,0-2.491,0.311-3.553,0.931
		c-1.063,0.621-1.789,1.47-2.181,2.548l-4.116-1.764c0.556-1.438,1.649-2.769,3.283-3.993c1.633-1.226,3.789-1.838,6.468-1.838
		c3.07,0,5.618,0.898,7.645,2.695c2.024,1.797,3.038,4.328,3.038,7.595v14.504h-4.313v-3.332h-0.196
		C708.515,154.239,705.885,155.611,702.423,155.611z M703.158,151.495c1.861,0,3.553-0.693,5.071-2.082s2.278-3.03,2.278-4.925
		c-1.273-1.045-3.185-1.568-5.732-1.568c-2.189,0-3.839,0.475-4.949,1.421c-1.111,0.948-1.666,2.059-1.666,3.332
		c0,1.177,0.506,2.107,1.519,2.793C700.691,151.152,701.851,151.495,703.158,151.495z"/>
</g>
</svg>
